<svg width="24" height="24" viewBox="0 0 24 24" fill="none" xmlns="http://www.w3.org/2000/svg">
<path d="M12 20L19.2333 18.0271C19.4917 17.9751 19.75 17.7154 19.75 17.4039V4.42329C19.75 4.16368 19.5433 3.95609 19.2333 4.00801L12 5.98096" stroke="#6C6B80" stroke-width="1.5" stroke-miterlimit="10" stroke-linecap="round" stroke-linejoin="round"/>
<path d="M12 5.98438L12 19.4842" stroke="#4F46E5" stroke-width="1.5" stroke-miterlimit="10" stroke-linecap="round" stroke-linejoin="round"/>
<path d="M12 20L4.76667 18.0271C4.50833 17.9751 4.25 17.7154 4.25 17.4039V4.42329C4.25 4.16368 4.45667 3.95609 4.76667 4.00801L12 5.98096" fill="#6C6B80"/>
<path d="M12 20L4.76667 18.0271C4.50833 17.9751 4.25 17.7154 4.25 17.4039V4.42329C4.25 4.16368 4.45667 3.95609 4.76667 4.00801L12 5.98096" stroke="#6C6B80" stroke-width="1.5" stroke-miterlimit="10" stroke-linecap="round" stroke-linejoin="round"/>
<path d="M6.32031 7.90625L9.93698 8.63311" stroke="#EEF2FF" stroke-width="1.5" stroke-miterlimit="10" stroke-linecap="round" stroke-linejoin="round"/>
<path d="M6.32031 10.5L8.38698 10.9153" stroke="#EEF2FF" stroke-width="1.5" stroke-miterlimit="10" stroke-linecap="round" stroke-linejoin="round"/>
</svg>
