<svg width="29" height="29" viewBox="0 0 29 29" fill="none" xmlns="http://www.w3.org/2000/svg">
<path d="M18.1581 0.863985C19.0585 1.69133 16.2358 2.032 13.2671 10.6461C9.88471 20.4769 11.6124 24.1026 13.2184 26.5603C14.3621 28.3123 9.3007 27.6067 8.32735 26.6333C4.75031 23.1536 9.5197 18.5545 6.64833 17.5082C4.50697 16.7052 6.86734 24.1999 5.11531 23.8593C1.4896 23.1293 0.34592 15.3668 0.516255 13.0065C0.735258 9.7701 2.07361 9.89176 3.26596 8.40741C4.50697 6.89873 4.94498 4.9277 5.91833 3.24868C7.30534 0.839652 15.8708 -1.22871 18.1581 0.863985ZM11.1987 7.14206C12.0504 5.70638 12.5371 4.19769 11.1257 5.77938C8.88703 8.28575 4.70164 15.1965 8.01102 14.7585C10.2984 14.4422 9.4467 10.0864 11.1987 7.14206Z" fill="#4F46E5"/>
<path d="M28.4996 13.253C28.4266 16.4163 16.0408 15.2727 19.3745 18.509C22.1972 21.2344 24.8252 15.6863 27.4532 15.9783C29.0106 16.1487 28.4266 18.1197 28.1102 19.166C26.7232 23.7408 21.9538 28.1452 17.1601 28.1452C11.7094 28.1452 12.1474 16.8057 14.1671 10.9656C16.7708 3.47085 19.4961 1.08616 21.1508 1.67017C24.7765 2.91118 28.4266 7.46157 28.0129 10.7223C27.7209 13.0583 16.9654 12.6933 19.4231 13.983C21.2968 14.9563 28.5239 12.2553 28.4996 13.253Z" fill="#4F46E5"/>
</svg>
