<svg width="18" height="18" viewBox="0 0 18 18" fill="none" xmlns="http://www.w3.org/2000/svg">
<path d="M17 16.4682C17 16.7882 16.7867 17.0016 16.4667 17.0016H1.53333C1.21333 17.0016 1 16.7882 1 16.4682V3.1349C1 2.8149 1.21333 2.60156 1.53333 2.60156H16.4667C16.7867 2.60156 17 2.8149 17 3.1349V16.4682Z" stroke="#6C6B80" stroke-width="1.5" stroke-miterlimit="10" stroke-linecap="round" stroke-linejoin="round"/>
<path d="M11.6641 1V3.66667" stroke="#6C6B80" stroke-width="1.5" stroke-miterlimit="10" stroke-linecap="round" stroke-linejoin="round"/>
<path d="M6.33203 1V3.66667" stroke="#6C6B80" stroke-width="1.5" stroke-miterlimit="10" stroke-linecap="round" stroke-linejoin="round"/>
<path d="M5.26589 7.39844H4.19922V8.4651H5.26589V7.39844Z" stroke="#6C6B80" stroke-width="1.5" stroke-miterlimit="10" stroke-linecap="round" stroke-linejoin="round"/>
<path d="M9.53151 7.39844H8.46484V8.4651H9.53151V7.39844Z" stroke="#6C6B80" stroke-width="1.5" stroke-miterlimit="10" stroke-linecap="round" stroke-linejoin="round"/>
<path d="M13.801 7.39844H12.7344V8.4651H13.801V7.39844Z" stroke="#6C6B80" stroke-width="1.5" stroke-miterlimit="10" stroke-linecap="round" stroke-linejoin="round"/>
<path d="M5.26589 11.6641H4.19922V12.7307H5.26589V11.6641Z" stroke="#6C6B80" stroke-width="1.5" stroke-miterlimit="10" stroke-linecap="round" stroke-linejoin="round"/>
<path d="M9.53151 11.6641H8.46484V12.7307H9.53151V11.6641Z" stroke="#6C6B80" stroke-width="1.5" stroke-miterlimit="10" stroke-linecap="round" stroke-linejoin="round"/>
<path d="M13.801 11.6641H12.7344V12.7307H13.801V11.6641Z" stroke="#6C6B80" stroke-width="1.5" stroke-miterlimit="10" stroke-linecap="round" stroke-linejoin="round"/>
</svg>
